<svg width="50" height="57" viewBox="0 0 50 57" fill="none" xmlns="http://www.w3.org/2000/svg">
<path d="M32.7292 29.789C34.7716 27.9812 36.2625 25.5021 36.9942 22.6967C37.726 19.8913 37.6623 16.899 36.8121 14.1362C35.9618 11.3734 34.3672 8.97742 32.2501 7.28163C30.1331 5.58585 27.5989 4.67456 25 4.67456C22.4011 4.67456 19.8669 5.58585 17.7499 7.28163C15.6328 8.97742 14.0382 11.3734 13.1879 14.1362C12.3377 16.899 12.274 19.8913 13.0058 22.6967C13.7375 25.5021 15.2283 27.9812 17.2708 29.789C13.771 31.3664 10.7173 33.9828 8.43519 37.3591C6.15312 40.7354 4.72826 44.7452 4.3125 48.9609C4.28241 49.2687 4.30649 49.5801 4.38339 49.8774C4.46028 50.1747 4.58847 50.4521 4.76065 50.6937C5.10837 51.1816 5.61413 51.4941 6.16667 51.5624C6.7192 51.6308 7.27325 51.4495 7.70693 51.0583C8.14061 50.6671 8.41839 50.0981 8.47917 49.4765C8.93664 44.8949 10.8785 40.6636 13.9338 37.5909C16.9891 34.5182 20.9435 32.8195 25.0417 32.8195C29.1398 32.8195 33.0943 34.5182 36.1495 37.5909C39.2048 40.6636 41.1467 44.8949 41.6042 49.4765C41.6608 50.0524 41.9051 50.5843 42.2898 50.9695C42.6745 51.3547 43.1725 51.566 43.6875 51.5624H43.9167C44.4628 51.4918 44.9619 51.1811 45.3053 50.6982C45.6487 50.2153 45.8086 49.5992 45.75 48.9843C45.3323 44.7567 43.8997 40.7366 41.6059 37.3551C39.3121 33.9736 36.2436 31.3581 32.7292 29.789V29.789ZM25 28.1249C23.3518 28.1249 21.7407 27.5751 20.3702 26.545C18.9998 25.5148 17.9317 24.0507 17.301 22.3376C16.6703 20.6245 16.5052 18.7395 16.8268 16.921C17.1483 15.1024 17.942 13.4319 19.1074 12.1208C20.2729 10.8097 21.7577 9.91682 23.3742 9.55508C24.9908 9.19334 26.6663 9.379 28.189 10.0886C29.7117 10.7981 31.0132 11.9998 31.9289 13.5415C32.8446 15.0832 33.3333 16.8957 33.3333 18.7499C33.3333 21.2363 32.4554 23.6209 30.8926 25.3791C29.3298 27.1372 27.2101 28.1249 25 28.1249Z" fill="#CBCBCB"/>
</svg>
