<svg width="50" height="57" viewBox="0 0 50 57" fill="none" xmlns="http://www.w3.org/2000/svg">
<path d="M33.3334 32.8125H16.6667C16.1142 32.8125 15.5843 33.0594 15.1936 33.499C14.8029 33.9385 14.5834 34.5347 14.5834 35.1563C14.5834 35.7779 14.8029 36.374 15.1936 36.8135C15.5843 37.2531 16.1142 37.5 16.6667 37.5H33.3334C33.8859 37.5 34.4158 37.2531 34.8065 36.8135C35.1972 36.374 35.4167 35.7779 35.4167 35.1563C35.4167 34.5347 35.1972 33.9385 34.8065 33.499C34.4158 33.0594 33.8859 32.8125 33.3334 32.8125ZM33.3334 23.4375L20.8334 23.4375C20.2809 23.4375 19.751 23.6844 19.3603 24.124C18.9696 24.5635 18.7501 25.1596 18.7501 25.7813C18.7501 26.4029 18.9696 26.999 19.3603 27.4385C19.751 27.8781 20.2809 28.125 20.8334 28.125L33.3334 28.125C33.8859 28.125 34.4158 27.8781 34.8065 27.4385C35.1972 26.999 35.4167 26.4029 35.4167 25.7813C35.4167 25.1596 35.1972 24.5635 34.8065 24.124C34.4158 23.6844 33.8859 23.4375 33.3334 23.4375ZM41.6667 9.375H35.4167V7.03125C35.4167 6.40965 35.1972 5.81351 34.8065 5.37397C34.4158 4.93443 33.8859 4.6875 33.3334 4.6875C32.7809 4.6875 32.251 4.93443 31.8603 5.37397C31.4696 5.81351 31.2501 6.40965 31.2501 7.03125V9.375L27.0834 9.375V7.03125C27.0834 6.40965 26.8639 5.81351 26.4732 5.37397C26.0825 4.93443 25.5526 4.6875 25.0001 4.6875C24.4475 4.6875 23.9176 4.93443 23.5269 5.37397C23.1362 5.81351 22.9167 6.40965 22.9167 7.03125V9.375L18.7501 9.375V7.03125C18.7501 6.40965 18.5306 5.81351 18.1399 5.37397C17.7492 4.93443 17.2193 4.6875 16.6667 4.6875C16.1142 4.6875 15.5843 4.93443 15.1936 5.37397C14.8029 5.81351 14.5834 6.40965 14.5834 7.03125V9.375H8.33339C7.78086 9.375 7.25096 9.62193 6.86026 10.0615C6.46955 10.501 6.25006 11.0971 6.25006 11.7188L6.25006 44.5313C6.25006 46.3961 6.90854 48.1845 8.08064 49.5031C9.25275 50.8217 10.8425 51.5625 12.5001 51.5625H37.5001C39.1577 51.5625 40.7474 50.8217 41.9195 49.5031C43.0916 48.1845 43.7501 46.3961 43.7501 44.5313L43.7501 11.7188C43.7501 11.0971 43.5306 10.501 43.1399 10.0615C42.7492 9.62193 42.2193 9.375 41.6667 9.375V9.375ZM39.5834 44.5313C39.5834 45.1529 39.3639 45.749 38.9732 46.1885C38.5825 46.6281 38.0526 46.875 37.5001 46.875H12.5001C11.9475 46.875 11.4176 46.6281 11.0269 46.1885C10.6362 45.749 10.4167 45.1529 10.4167 44.5313L10.4167 14.0625H14.5834V16.4063C14.5834 17.0279 14.8029 17.624 15.1936 18.0635C15.5843 18.5031 16.1142 18.75 16.6667 18.75C17.2193 18.75 17.7492 18.5031 18.1399 18.0635C18.5306 17.624 18.7501 17.0279 18.7501 16.4063V14.0625H22.9167V16.4063C22.9167 17.0279 23.1362 17.624 23.5269 18.0635C23.9176 18.5031 24.4475 18.75 25.0001 18.75C25.5526 18.75 26.0825 18.5031 26.4732 18.0635C26.8639 17.624 27.0834 17.0279 27.0834 16.4063V14.0625H31.2501V16.4063C31.2501 17.0279 31.4696 17.624 31.8603 18.0635C32.251 18.5031 32.7809 18.75 33.3334 18.75C33.8859 18.75 34.4158 18.5031 34.8065 18.0635C35.1972 17.624 35.4167 17.0279 35.4167 16.4063V14.0625H39.5834L39.5834 44.5313Z" fill="#CBCBCB"/>
</svg>
