<svg width="50" height="57" viewBox="0 0 50 57" fill="none" xmlns="http://www.w3.org/2000/svg">
<path d="M35.4167 16.4061H37.5V18.7499C37.5 19.3715 37.7195 19.9676 38.1102 20.4072C38.5009 20.8467 39.0308 21.0936 39.5834 21.0936C40.1359 21.0936 40.6658 20.8467 41.0565 20.4072C41.4472 19.9676 41.6667 19.3715 41.6667 18.7499V16.4061H43.75C44.3026 16.4061 44.8325 16.1592 45.2232 15.7197C45.6139 15.2801 45.8334 14.684 45.8334 14.0624C45.8334 13.4408 45.6139 12.8446 45.2232 12.4051C44.8325 11.9656 44.3026 11.7186 43.75 11.7186H41.6667V9.37488C41.6667 8.75328 41.4472 8.15713 41.0565 7.7176C40.6658 7.27806 40.1359 7.03113 39.5834 7.03113C39.0308 7.03113 38.5009 7.27806 38.1102 7.7176C37.7195 8.15713 37.5 8.75328 37.5 9.37488V11.7186H35.4167C34.8642 11.7186 34.3342 11.9656 33.9435 12.4051C33.5528 12.8446 33.3334 13.4408 33.3334 14.0624C33.3334 14.684 33.5528 15.2801 33.9435 15.7197C34.3342 16.1592 34.8642 16.4061 35.4167 16.4061ZM43.75 25.7811C43.1975 25.7811 42.6676 26.0281 42.2769 26.4676C41.8862 26.9071 41.6667 27.5033 41.6667 28.1249L41.6667 42.1874C41.6667 42.809 41.4472 43.4051 41.0565 43.8447C40.6658 44.2842 40.1359 44.5311 39.5834 44.5311L10.4167 44.5311C9.86415 44.5311 9.33425 44.2842 8.94355 43.8447C8.55285 43.4051 8.33335 42.809 8.33335 42.1874L8.33335 19.7108L20.5834 33.5155C21.7552 34.8322 23.3438 35.5718 25 35.5718C26.6563 35.5718 28.2448 34.8322 29.4167 33.5155L34.5625 27.7264C34.9548 27.2851 35.1752 26.6865 35.1752 26.0624C35.1752 25.4382 34.9548 24.8397 34.5625 24.3983C34.1702 23.957 33.6381 23.709 33.0834 23.709C32.5286 23.709 31.9965 23.957 31.6042 24.3983L26.4584 30.1874C26.0689 30.6168 25.5453 30.8574 25 30.8574C24.4547 30.8574 23.9311 30.6168 23.5417 30.1874L11.2709 16.4061H27.0834C27.6359 16.4061 28.1658 16.1592 28.5565 15.7197C28.9472 15.2801 29.1667 14.684 29.1667 14.0624C29.1667 13.4408 28.9472 12.8446 28.5565 12.4051C28.1658 11.9656 27.6359 11.7186 27.0834 11.7186L10.4167 11.7186C8.75908 11.7186 7.16937 12.4594 5.99727 13.778C4.82517 15.0966 4.16669 16.8851 4.16669 18.7499L4.16669 42.1874C4.16669 44.0522 4.82517 45.8406 5.99727 47.1592C7.16937 48.4778 8.75908 49.2186 10.4167 49.2186L39.5834 49.2186C41.241 49.2186 42.8307 48.4778 44.0028 47.1592C45.1749 45.8406 45.8334 44.0522 45.8334 42.1874L45.8334 28.1249C45.8334 27.5033 45.6139 26.9071 45.2232 26.4676C44.8325 26.0281 44.3026 25.7811 43.75 25.7811Z" fill="#CBCBCB"/>
</svg>
