<svg width="50" height="57" viewBox="0 0 50 57" fill="none" xmlns="http://www.w3.org/2000/svg">
<path d="M41.6666 18.7498L29.1667 6.42169C28.0208 5.26867 26.5373 4.63123 25 4.63123C23.4626 4.63123 21.9792 5.26867 20.8333 6.42169L8.33333 18.7498C7.6716 19.4156 7.14354 20.2324 6.78432 21.1457C6.42509 22.059 6.24295 23.048 6.25 24.0467V44.531C6.25 46.3958 6.90848 48.1843 8.08058 49.5029C9.25269 50.8215 10.8424 51.5623 12.5 51.5623H37.5C39.1576 51.5623 40.7473 50.8215 41.9194 49.5029C43.0915 48.1843 43.75 46.3958 43.75 44.531V24.0232C43.7541 23.0285 43.5705 22.044 43.2114 21.135C42.8522 20.2259 42.3257 19.413 41.6666 18.7498V18.7498ZM29.1667 46.8748H20.8333V35.156C20.8333 34.5344 21.0528 33.9383 21.4435 33.4988C21.8342 33.0592 22.3641 32.8123 22.9167 32.8123H27.0833C27.6359 32.8123 28.1658 33.0592 28.5565 33.4988C28.9472 33.9383 29.1667 34.5344 29.1667 35.156V46.8748ZM39.5833 44.531C39.5833 45.1526 39.3638 45.7488 38.9731 46.1883C38.5824 46.6279 38.0525 46.8748 37.5 46.8748H33.3333V35.156C33.3333 33.2912 32.6748 31.5028 31.5027 30.1842C30.3306 28.8656 28.7409 28.1248 27.0833 28.1248H22.9167C21.2591 28.1248 19.6693 28.8656 18.4972 30.1842C17.3251 31.5028 16.6667 33.2912 16.6667 35.156V46.8748H12.5C11.9475 46.8748 11.4176 46.6279 11.0269 46.1883C10.6362 45.7488 10.4167 45.1526 10.4167 44.531V24.0232C10.417 23.6905 10.4804 23.3616 10.6025 23.0585C10.7247 22.7554 10.9028 22.4851 11.125 22.2654L23.625 9.96075C24.0052 9.585 24.4939 9.37778 25 9.37778C25.506 9.37778 25.9948 9.585 26.375 9.96075L38.875 22.2654C39.0972 22.4851 39.2753 22.7554 39.3974 23.0585C39.5196 23.3616 39.5829 23.6905 39.5833 24.0232V44.531Z" fill="#CBCBCB"/>
</svg>
