<svg width="50" height="57" viewBox="0 0 50 57" fill="none" xmlns="http://www.w3.org/2000/svg">
<path d="M41.8959 40.9922L31.2501 20.4609V9.375H33.3334C33.8859 9.375 34.4158 9.12807 34.8065 8.68853C35.1972 8.24899 35.4167 7.65285 35.4167 7.03125C35.4167 6.40965 35.1972 5.81351 34.8065 5.37397C34.4158 4.93443 33.8859 4.6875 33.3334 4.6875L16.6667 4.6875C16.1142 4.6875 15.5843 4.93443 15.1936 5.37397C14.8029 5.81351 14.5834 6.40965 14.5834 7.03125C14.5834 7.65285 14.8029 8.24899 15.1936 8.68853C15.5843 9.12807 16.1142 9.375 16.6667 9.375H18.7501L18.7501 20.4609L8.10423 40.9922C7.5512 42.0603 7.25822 43.2735 7.25484 44.5096C7.25145 45.7457 7.53778 46.9609 8.08495 48.0328C8.63213 49.1047 9.42082 49.9954 10.3715 50.6151C11.3222 51.2348 12.4013 51.5616 13.5001 51.5625H36.4167C37.5155 51.5616 38.5946 51.2348 39.5453 50.6151C40.496 49.9954 41.2847 49.1047 41.8318 48.0328C42.379 46.9609 42.6653 45.7457 42.662 44.5096C42.6586 43.2735 42.3656 42.0603 41.8126 40.9922H41.8959ZM22.6251 22.2422C22.8088 21.8941 22.9093 21.4985 22.9167 21.0938L22.9167 9.375H27.0834V21.0938C27.0872 21.5065 27.1878 21.9107 27.3751 22.2656L29.1667 25.7813L20.8334 25.7813L22.6251 22.2422ZM38.2917 45.6797C38.1099 46.0339 37.8489 46.3285 37.5346 46.534C37.2203 46.7396 36.8636 46.8491 36.5001 46.8516H13.5834C13.2198 46.8491 12.8632 46.7396 12.5488 46.534C12.2345 46.3285 11.9735 46.0339 11.7917 45.6797C11.6089 45.3234 11.5126 44.9192 11.5126 44.5078C11.5126 44.0964 11.6089 43.6922 11.7917 43.3359L18.3959 30.4688L31.6251 30.4688L38.2917 43.3594C38.4746 43.7157 38.5708 44.1198 38.5708 44.5313C38.5708 44.9427 38.4746 45.3468 38.2917 45.7031V45.6797ZM20.8334 35.1563C20.4214 35.1563 20.0186 35.2937 19.676 35.5512C19.3334 35.8088 19.0663 36.1748 18.9086 36.6031C18.751 37.0314 18.7097 37.5026 18.7901 37.9572C18.8705 38.4119 19.0689 38.8295 19.3603 39.1573C19.6516 39.4851 20.0228 39.7083 20.427 39.7987C20.8311 39.8892 21.25 39.8427 21.6307 39.6653C22.0113 39.488 22.3367 39.1875 22.5656 38.8021C22.7945 38.4167 22.9167 37.9636 22.9167 37.5C22.9167 36.8784 22.6972 36.2823 22.3065 35.8427C21.9158 35.4032 21.3859 35.1563 20.8334 35.1563ZM29.1667 37.5C28.7547 37.5 28.3519 37.6375 28.0093 37.895C27.6667 38.1525 27.3997 38.5186 27.242 38.9468C27.0843 39.3751 27.043 39.8464 27.1234 40.301C27.2038 40.7556 27.4022 41.1733 27.6936 41.501C27.9849 41.8288 28.3562 42.052 28.7603 42.1425C29.1644 42.2329 29.5833 42.1865 29.964 42.0091C30.3447 41.8317 30.67 41.5313 30.899 41.1459C31.1279 40.7604 31.2501 40.3073 31.2501 39.8438C31.2501 39.2222 31.0306 38.626 30.6399 38.1865C30.2492 37.7469 29.7193 37.5 29.1667 37.5Z" fill="#CBCBCB"/>
</svg>
